<svg width="80" height="27" viewBox="0 0 80 27" fill="none" xmlns="http://www.w3.org/2000/svg">
<mask id="mask0_1768_2081" style="mask-type:luminance" maskUnits="userSpaceOnUse" x="0" y="0" width="81" height="27">
<path d="M80.001 0.441406H0.000976562V26.2887H80.001V0.441406Z" fill="white"/>
</mask>
<g mask="url(#mask0_1768_2081)">
<path d="M69.4854 17.7043L69.9564 17.4314C70.0902 17.2471 70.1606 17.0218 70.1565 16.7914L70.1645 6.39044C70.14 5.45992 70.4139 4.54718 70.9434 3.79435C71.1553 3.4717 71.4392 3.20655 71.7711 3.02136C72.1031 2.83618 72.4733 2.7364 72.8504 2.73047H79.2945V5.47339H72.8504L72.3805 5.74634C72.2465 5.93094 72.176 6.15659 72.1804 6.38735L72.1695 16.7914C72.1941 17.7242 71.9148 18.6385 71.3764 19.3875C71.1682 19.7103 70.887 19.9757 70.5571 20.1607C70.2272 20.3457 69.8587 20.4448 69.4834 20.4493H64.7834C64.4064 20.444 64.0362 20.3447 63.7042 20.1598C63.3722 19.975 63.0883 19.71 62.8764 19.3875C62.3469 18.6347 62.0733 17.7219 62.0984 16.7914V12.2185C62.0721 11.2933 62.346 10.3856 62.8764 9.63998C63.086 9.31403 63.3691 9.04565 63.7013 8.85798C64.0335 8.6703 64.4049 8.56896 64.7834 8.56267H68.7484V11.3056H64.7804L64.3504 11.5982C64.196 11.7653 64.1094 11.9873 64.1084 12.2185V16.7914C64.1052 17.024 64.181 17.2505 64.3224 17.4314L64.7794 17.7043H69.4854Z" fill="white"/>
<path d="M69.499 17.6376L69.9639 17.3667C70.0969 17.1844 70.1673 16.9613 70.1639 16.733L70.1719 6.44573C70.1477 5.52531 70.4185 4.62241 70.942 3.87753C71.1515 3.55894 71.4323 3.29725 71.7604 3.11458C72.0885 2.93192 72.4543 2.83366 72.827 2.82812H79.197V5.54107H72.827L72.3619 5.81194C72.2289 5.99432 72.1585 6.21735 72.1619 6.44573L72.1539 16.733C72.1782 17.6553 71.9021 18.5594 71.3699 19.3001C71.1642 19.6192 70.8862 19.8815 70.5602 20.0644C70.2341 20.2473 69.8699 20.3451 69.499 20.3495H64.8539C64.4813 20.3442 64.1153 20.2461 63.7872 20.0634C63.459 19.8807 63.1783 19.6189 62.9689 19.3001C62.4457 18.5556 62.1753 17.653 62.1999 16.733V12.2107C62.174 11.2956 62.4447 10.3978 62.9689 9.66009C63.176 9.3377 63.4558 9.07222 63.7842 8.88652C64.1126 8.70082 64.4797 8.60047 64.8539 8.59414H68.7739V11.3071H64.851L64.426 11.5966C64.273 11.762 64.1874 11.9819 64.1869 12.2107V16.733C64.1838 16.9633 64.2588 17.1876 64.3989 17.3667L64.851 17.6376H69.499Z" fill="white"/>
<path d="M75.0579 17.7025C74.5322 17.3862 74.0981 16.9299 73.801 16.3812C73.5205 15.8006 73.3831 15.1574 73.401 14.5088C73.3885 13.8634 73.5362 13.2256 73.83 12.656C74.118 12.1165 74.5407 11.6666 75.054 11.3533L79.484 8.50391V11.6821L75.299 14.5108L79.484 17.3633V20.5333L75.0579 17.7025Z" fill="#0070BF"/>
<path d="M75.1037 17.6069C74.5946 17.2999 74.1746 16.8571 73.8877 16.3249C73.6176 15.7615 73.4861 15.1379 73.5047 14.5094C73.4928 13.884 73.6357 13.2658 73.9197 12.7135C74.1981 12.1908 74.6069 11.7549 75.1037 11.4511L79.3897 8.6875V11.7696L75.3407 14.5125L79.3897 17.2771V20.3509L75.1037 17.6069Z" fill="white"/>
<path d="M52.3604 11.2585V8.51562H58.0353C58.4124 8.52149 58.7822 8.62308 59.1123 8.81149C59.4424 8.99989 59.7226 9.26931 59.9283 9.59603C60.4654 10.3342 60.7446 11.2388 60.7203 12.1621C60.7382 12.9755 60.53 13.7772 60.1204 14.4719C60.53 15.1578 60.7384 15.9519 60.7203 16.7578V20.4002H58.7014L58.7073 16.7712C58.7109 16.5381 58.6348 16.3111 58.4924 16.1302L58.0364 15.8552L55.1453 15.849V13.0968L57.9664 13.103L58.5054 12.8021C58.6366 12.6212 58.7068 12.4008 58.7053 12.1746C58.709 11.9414 58.6329 11.7143 58.4904 11.5335L58.0344 11.2585H52.3604Z" fill="white"/>
<path d="M52.459 11.3117V8.61328H57.998C58.3672 8.61867 58.7294 8.71819 59.0525 8.90305C59.3756 9.08792 59.6495 9.35241 59.85 9.67302C60.375 10.4008 60.6477 11.2902 60.624 12.1978C60.6412 12.9983 60.4373 13.7874 60.036 14.4723C60.4366 15.1485 60.6406 15.9294 60.624 16.7221V20.3045H58.65L58.656 16.7345C58.6597 16.5055 58.5857 16.2824 58.447 16.1038L58.002 15.833L55.18 15.8267V13.12L57.935 13.1262L58.461 12.8305C58.5916 12.652 58.6619 12.434 58.661 12.2102C58.6646 11.9815 58.5906 11.7588 58.452 11.5805L58.007 11.3097L52.459 11.3117Z" fill="white"/>
<path d="M12.8743 2.71094H10.8613V20.4081H12.8743V2.71094Z" fill="#ABC3E7"/>
<path d="M37.3037 20.4484V8.55859H44.0197C44.3967 8.56406 44.7666 8.66528 45.0969 8.85332C45.4272 9.04136 45.7077 9.31046 45.9137 9.63694C46.4521 10.3791 46.7313 11.2881 46.7057 12.2155V20.4452H44.6917V12.2155C44.6957 11.9833 44.6199 11.7573 44.4777 11.5775L44.0207 11.3025H39.3207V20.4463L37.3037 20.4484Z" fill="#ABC3E7"/>
<path d="M32.3844 17.7073V20.4491H28.3664C27.9894 20.4437 27.6192 20.3444 27.2872 20.1595C26.9552 19.9747 26.6713 19.7098 26.4594 19.3874C25.9299 18.6345 25.6564 17.7217 25.6814 16.7912V12.2183C25.6554 11.2932 25.9292 10.3856 26.4594 9.63981C26.669 9.31392 26.9522 9.04559 27.2844 8.85792C27.6166 8.67025 27.9879 8.56888 28.3664 8.5625H33.0664C33.4431 8.56803 33.8128 8.66916 34.1429 8.85701C34.473 9.04486 34.7534 9.31366 34.9594 9.63981C35.4981 10.3819 35.7776 11.2908 35.7524 12.2183V20.4202H33.7364V12.2183C33.7417 11.9864 33.6673 11.76 33.5264 11.5794L33.0704 11.3044H28.3704L27.9404 11.597C27.7859 11.7641 27.6992 11.9861 27.6984 12.2173V16.7902C27.6949 17.0234 27.771 17.2504 27.9134 17.4312L28.3694 17.7042L32.3844 17.7073Z" fill="#ABC3E7"/>
<path d="M21.5928 17.7058L22.0618 17.4329C22.1956 17.2485 22.266 17.0233 22.2618 16.7929L22.2698 2.51172H24.2858L24.2778 16.7929C24.3029 17.7256 24.0239 18.6399 23.4858 19.389C23.2775 19.7117 22.9962 19.977 22.6664 20.162C22.3365 20.3471 21.9681 20.4462 21.5928 20.4508H16.8928C16.5157 20.4453 16.1454 20.3458 15.8134 20.1608C15.4814 19.9758 15.1975 19.7107 14.9858 19.388C14.4556 18.6355 14.1816 17.7225 14.2068 16.7918V12.2189C14.1805 11.2936 14.4547 10.3857 14.9858 9.6404C15.1952 9.31453 15.4782 9.04621 15.8102 8.85853C16.1422 8.67085 16.5135 8.56946 16.8918 8.56309L20.9918 8.54965L20.9498 11.3412L16.8948 11.3071L16.4658 11.5986C16.3108 11.7654 16.2241 11.9876 16.2238 12.2189V16.795C16.2201 17.0277 16.2959 17.2543 16.4378 17.4349L16.8938 17.7079L21.5928 17.7058Z" fill="#ABC3E7"/>
<path d="M9.35808 11.2754H3.68608L3.23009 11.5484C3.08781 11.7289 3.01168 11.9555 3.01508 12.1884C3.00817 12.4252 3.07863 12.6576 3.21509 12.848L3.67809 13.2202H6.65108V15.9507H3.68608L3.23009 16.2257C3.08765 16.4053 3.01146 16.6314 3.01508 16.8636C3.00833 17.1005 3.07877 17.3328 3.21509 17.5232L3.68608 17.7962H9.35808V20.5391H3.68608C3.31078 20.5347 2.94219 20.4358 2.61217 20.251C2.28216 20.0661 2.00068 19.8009 1.79208 19.4784C1.30777 18.7594 1.03383 17.9114 1.00298 17.0359C0.972121 16.1603 1.18566 15.294 1.61809 14.5405C1.19645 13.84 0.981672 13.0276 1.00008 12.2028C0.971187 11.2689 1.25049 10.3527 1.79208 9.60465C1.99822 9.27836 2.27877 9.00949 2.60904 8.82163C2.93931 8.63377 3.30917 8.5327 3.68608 8.52734H9.35808V11.2754Z" fill="#ABC3E7"/>
<path d="M50.7105 8.61328H48.8945V24.528H50.7105V8.61328Z" fill="white"/>
</g>
</svg>
